<?xml version="1.0" encoding="UTF-8"?><svg id="Layer_1" xmlns="http://www.w3.org/2000/svg" viewBox="0 0 738.69 667.22"><defs><style>.cls-1{fill:#1a7d7f;}.cls-1,.cls-2{stroke:#1a7d7f;stroke-miterlimit:10;}.cls-2{fill:none;stroke-width:19px;}</style></defs><path class="cls-2" d="M516,660.51c-47-47-56-103-56-103,0,0-87,2-111-44.5-24,0-132,12.5-144.5-108C-1,428.51,26,283.51,26,283.51c0,0-65-111,63-167C139.5,5.01,241.5,40.01,264,45.51c114-75,230-17,250,31,73-19,167,28,172,112,84.5,48.5,18.5,151.5,21,147-12,179-158,150-158,150,0,0-25,61,25,112"/><path class="cls-1" d="M382.5,175.01l-133.32-.1.32-18.9,265,1-4,18h-109v21c11.48.27,21.4,2.01,31.98,5.02,10.57,3.01,19.91,7.31,28.03,12.92,8.11,5.61,14.61,12.44,19.48,20.51,4.88,8.07,7.31,17.29,7.31,27.69,0,7.57-1.28,14.24-3.83,20.03-2.55,5.79-5.9,10.64-10.05,14.56-4.15,3.92-8.91,6.88-14.29,8.89-5.38,2.01-10.89,3.01-16.54,3.01s-10.14-.84-13.74-2.53c-3.6-1.69-6.47-3.76-8.61-6.22-2.14-2.46-3.62-5.1-4.44-7.93-.82-2.82-1.23-5.33-1.23-7.52,0-2.73.52-5.35,1.57-7.86,1.05-2.51,2.51-4.72,4.38-6.63,1.87-1.91,4.12-3.44,6.77-4.58,2.64-1.14,5.61-1.71,8.89-1.71,3.46,0,6.47.64,9.02,1.91,2.55,1.28,4.65,2.89,6.29,4.85,1.64,1.96,2.87,4.08,3.69,6.36.82,2.28,1.23,4.42,1.23,6.43l1.5.27c2.64-1.46,4.6-3.8,5.88-7.04,1.28-3.23,1.91-6.99,1.91-11.28,0-5.47-1.19-10.87-3.55-16.2-2.37-5.33-6.2-10.16-11.48-14.49-5.29-4.33-12.15-7.93-20.58-10.8-8.43-2.87-17.55-4.19-29.59-4.64l-1,145-13.51.12c-3.01-7.38-7-14.56-11.96-21.53-4.97-6.97-10.57-13.58-16.82-19.82-6.24-6.24-12.92-12.03-20.03-17.36s-14.24-10.12-21.4-14.36c-7.16-4.24-14.13-7.84-20.92-10.8-6.79-2.96-13.01-5.13-18.66-6.49v-29.39c6.38-4.19,13.44-8.77,21.19-13.74,7.75-4.97,15.97-9.75,24.68-14.36,8.7-4.6,17.68-8.73,26.93-12.37,9.25-3.64,23.1-6.34,32.49-7.89v-21ZM381.5,316.01l1-98c-4.29.55-13.44,2.34-18.41,4.07-4.97,1.73-10,3.76-15.11,6.08-5.11,2.32-10.16,4.85-15.18,7.59-5.01,2.73-9.73,5.42-14.15,8.07-4.42,2.64-8.41,5.13-11.96,7.45s-6.43,4.22-8.61,5.67v3.01c13.58,4.83,27.05,11.6,40.4,20.3,13.35,8.71,25.91,19.44,37.67,32.2l4.35,3.56Z"/><path class="cls-2" d="M544,627.51s-40-37-59-158c-18-91-94-50-94-109l1-200"/><path class="cls-2" d="M180,270.51c52.1,13.84,152,55,152,94-161-27-248,45-253-84,0,0-36-38-17-75,20.68-40.28,53.61,27.27,113-6,0,0,23-14,44-34h8.5"/><path class="cls-2" d="M79,280.51s35.74-13.96,76.69-12.49"/><path class="cls-2" d="M349,513.01s35.78,2.54,27.95-43.7c-8.95-52.8-94.95-71.8-110.95-71.8s-36,3-36,3"/><path class="cls-2" d="M460,557.51l-10-61c-7.35-80.89-61-58-61-58"/><path class="cls-2" d="M549,485.51s6-63-31-98c-44.61-42.19-62,1-62,1"/><path class="cls-2" d="M518,387.51s94.76-69.25-13-107"/><path class="cls-2" d="M707,335.51c-65-69-156,2-124,94,15.33,44.08,87-17,83-70v-22"/><path class="cls-2" d="M686,188.51s-27,100-92,79c-116.5-37.64-12-155-12-155"/><path class="cls-2" d="M514,76.51l-19,47h-132c-74,0-41-131,102-47"/><path class="cls-2" d="M89,116.51s-6.76,34,38,46,48.24-24,86-35,55,6,59-23c4-33-84-47-110-14"/><path class="cls-2" d="M191,264.51s39.89-95.39,77-43"/></svg>