<?xml version="1.0" encoding="UTF-8"?><svg xmlns="http://www.w3.org/2000/svg" viewBox="0 0 950 500.5"><g id="D"><rect x="750" y="400" width="100" height="100"/><rect x="850" y="300.5" width="100" height="100"/><rect x="650" y="300" width="100" height="100"/><rect x="850" y="200.5" width="100" height="100"/><rect x="650" y="200" width="100" height="100"/><rect x="850" y="100.5" width="100" height="100"/><rect x="750" y="100" width="100" height="100"/><rect x="850" y=".5" width="100" height="100"/></g><g id="R"><rect x="300" y="400" width="100" height="100"/><rect x="300" y="300" width="100" height="100"/><rect x="300" y="200" width="100" height="100"/><rect x="500" y="100" width="100" height="100"/><rect x="400" y="100" width="100" height="100"/></g><g id="T"><rect x="100" y="400.5" width="100" height="100"/><rect y="300" width="100" height="100"/><rect y="200" width="100" height="100"/><rect x="100" y="100" width="100" height="100"/><rect y="100" width="100" height="100"/><rect width="100" height="100"/></g></svg>